<svg width="1920" height="864" viewBox="0 0 1920 864" fill="none" xmlns="http://www.w3.org/2000/svg">
<g clip-path="url(#clip0_24_3778)">
<rect width="1920" height="864" fill="#F3F6FB"/>
<path opacity="0.71" d="M444.97 687.899V666.741H407.067V644H358.34V701.65H347.02V715.137H338.159V747.398H327.821V702.969H302.225V690.012H287.704V710.771L274.17 718.043V759.825H242.173V668.064H207.716V685.251H180.643L173.26 689.218V698.739H139.299L132.898 702.175V734.441H118.622V684.726H92.0445V693.453H49.9593V714.475L42.3306 718.574V739.224H29.6392V688.262L12.4087 684.558V670.807H-33.8591V728.987H-38V853H-0.815321H29.6392H115.829V852.855L459 852.637V695.434L444.97 687.899Z" fill="#E8EDF4"/>
<path opacity="0.71" d="M1410.94 687.899V666.741H1372.96V644H1324.14V701.65H1312.79V715.137H1303.92V747.398H1293.56V702.969H1267.91V690.012H1253.36V710.771L1239.8 718.043V759.825H1207.74V668.064H1173.21V685.251H1146.08L1138.68 689.218V698.739H1104.66L1098.24 702.175V734.441H1083.94V684.726H1057.31V693.453H1015.14V714.475L1007.49 718.574V739.224H994.775V688.262L977.51 684.558V670.807H931.149V728.987H927V853H964.259H994.775H1081.14V852.855L1425 852.637V695.434L1410.94 687.899Z" fill="#E8EDF4"/>
<path opacity="0.71" d="M919.97 687.899V666.741H882.067V644H833.34V701.65H822.02V715.137H813.159V747.398H802.821V702.969H777.225V690.012H762.704V710.771L749.17 718.043V759.825H717.173V668.064H682.716V685.251H655.643L648.26 689.218V698.739H614.299L607.898 702.175V734.441H593.622V684.726H567.044V693.453H524.959V714.475L517.331 718.574V739.224H504.639V688.262L487.409 684.558V670.807H441.141V728.987H437V853H474.185H504.639H590.829V852.855L934 852.637V695.434L919.97 687.899Z" fill="#ECEFF6"/>
<path opacity="0.71" d="M1885.94 687.899V666.741H1847.96V644H1799.14V701.65H1787.79V715.137H1778.92V747.398H1768.56V702.969H1742.91V690.012H1728.36V710.771L1714.8 718.043V759.825H1682.74V668.064H1648.21V685.251H1621.08L1613.68 689.218V698.739H1579.66L1573.24 702.175V734.441H1558.94V684.726H1532.31V693.453H1490.14V714.475L1482.49 718.574V739.224H1469.78V688.262L1452.51 684.558V670.807H1406.15V728.987H1402V853H1439.26H1469.78H1556.14V852.855L1900 852.637V695.434L1885.94 687.899Z" fill="#ECEFF6"/>
<path d="M478.688 751.949L471.583 759.557V782.876H464.006V719H430.141V867.789L419.96 856.887V771.217H344.654V793.011H304.873V861.449V891.582H269.923V802.585H259.812V767.964H239.087V825.308H229.486V836.131L217.356 815.573H196.126V741.451H155.185L151.646 745.242V767.964V793.388H140.021V725.763H105.147V737.124L98.3203 744.428V859.662H90.4886V767.151H85.9359V758.224H45.7539L38.9319 765.529V775.806H1.02396L-1 907H125.363V906.729H253.745V907H304.873H378.594H509V751.949H478.688Z" fill="#E7EAF2"/>
<path d="M1444.69 751.949L1437.58 759.557V782.876H1430.01V719H1396.14V867.789L1385.96 856.887V771.217H1310.65V793.011H1270.87V861.449V891.582H1235.92V802.585H1225.81V767.964H1205.09V825.308H1195.49V836.131L1183.36 815.573H1162.13V741.451H1121.18L1117.65 745.242V767.964V793.388H1106.02V725.763H1071.15V737.124L1064.32 744.428V859.662H1056.49V767.151H1051.94V758.224H1011.75L1004.93 765.529V775.806H967.024L965 907H1091.36V906.729H1219.75V907H1270.87H1344.59H1475V751.949H1444.69Z" fill="#E7EAF2"/>
<path d="M953.628 751.949L946.509 759.557V782.876H938.918V719H904.986V867.789L894.785 856.887V771.217H819.331V793.011H779.472V861.449V891.582H744.454V802.585H734.324V767.964H713.558V825.308H703.938V836.131L691.785 815.573H670.513V741.451H629.491L625.945 745.242V767.964V793.388H614.298V725.763H579.355V737.124L572.515 744.428V859.662H564.668V767.151H560.106V758.224H519.846L513.01 765.529V775.806H475.028L473 907H599.611V906.729H728.245V907H779.472H853.338H984V751.949H953.628Z" fill="#E7EAF2"/>
<path d="M1919.69 751.949L1912.58 759.557V782.876H1905.01V719H1871.14V867.789L1860.96 856.887V771.217H1785.65V793.011H1745.87V861.449V891.582H1710.92V802.585H1700.81V767.964H1680.09V825.308H1670.49V836.131L1658.36 815.573H1637.13V741.451H1596.18L1592.65 745.242V767.964V793.388H1581.02V725.763H1546.15V737.124L1539.32 744.428V859.662H1531.49V767.151H1526.94V758.224H1486.75L1479.93 765.529V775.806H1442.02L1440 907H1566.36V906.729H1694.75V907H1745.87H1819.59H1950V751.949H1919.69Z" fill="#E7EAF2"/>
<path d="M456.1 795.267V876.659H445.077V844.267L429.46 831.647V782.643H409.71L398.228 773.364H383.528V822.736H348.161V878.791H338.971V800.461L313.252 811.229V858.004H306.363V785.984H297.636V764.826H288.909V760H285.233V764.085H263.644V780.419H243.435L238.38 785.984V852.806H221.159V839.256L210.364 830.531V798.609H172.701V824.965H158.918V847.236L142.385 862.085H131.82V791.554L102.425 775.221V840.554H95.5319V795.636H60.6233V811.229H44.5485V885.845H37.6593V853.546H14.2327V843.527L10.0983 838.698H-15.162L-17 969H418.967H445.077H456.1H486V795.267H456.1Z" fill="#DBDFEA"/>
<path d="M1422.1 795.267V876.659H1411.08V844.267L1395.46 831.647V782.643H1375.71L1364.23 773.364H1349.53V822.736H1314.16V878.791H1304.97V800.461L1279.25 811.229V858.004H1272.36V785.984H1263.64V764.826H1254.91V760H1251.23V764.085H1229.64V780.419H1209.44L1204.38 785.984V852.806H1187.16V839.256L1176.36 830.531V798.609H1138.7V824.965H1124.92V847.236L1108.39 862.085H1097.82V791.554L1068.43 775.221V840.554H1061.53V795.636H1026.62V811.229H1010.55V885.845H1003.66V853.546H980.233V843.527L976.098 838.698H950.838L949 969H1384.97H1411.08H1422.1H1452V795.267H1422.1Z" fill="#DBDFEA"/>
<path d="M930.041 795.267V876.659H918.995V844.267L903.348 831.647V782.643H883.558L872.053 773.364H857.324V822.736H821.887V878.791H812.679V800.461L786.909 811.229V858.004H780.006V785.984H771.262V764.826H762.517V760H758.834V764.085H737.202V780.419H716.953L711.887 785.984V852.806H694.632V839.256L683.817 830.531V798.609H646.078V824.965H632.268V847.236L615.702 862.085H605.116V791.554L575.663 775.221V840.554H568.756V795.636H533.778V811.229H517.671V885.845H510.768V853.546H487.295V843.527L483.152 838.698H457.842L456 969H892.834H918.995H930.041H960V795.267H930.041Z" fill="#DBDFEA"/>
<path d="M1897.04 795.267V876.659H1886V844.267L1870.35 831.647V782.643H1850.56L1839.05 773.364H1824.32V822.736H1788.89V878.791H1779.68V800.461L1753.91 811.229V858.004H1747.01V785.984H1738.26V764.826H1729.52V760H1725.83V764.085H1704.2V780.419H1683.95L1678.89 785.984V852.806H1661.63V839.256L1650.82 830.531V798.609H1613.08V824.965H1599.27V847.236L1582.7 862.085H1572.12V791.554L1542.66 775.221V840.554H1535.76V795.636H1500.78V811.229H1484.67V885.845H1477.77V853.546H1454.29V843.527L1450.15 838.698H1424.84L1423 969H1859.83H1886H1897.04H1927V795.267H1897.04Z" fill="#DBDFEA"/>
</g>
<defs>
<clipPath id="clip0_24_3778">
<rect width="1920" height="864" fill="white"/>
</clipPath>
</defs>
</svg>
