<svg width="335" height="76" viewBox="0 0 335 76" fill="none" xmlns="http://www.w3.org/2000/svg">
<g clip-path="url(#clip0_24_3807)">
<path d="M36.9954 24.8607C37.0538 24.9511 37.1317 25.0285 37.1382 25.119C37.2226 25.3837 37.4693 25.5452 37.5018 25.8164C37.5018 25.9068 37.6316 25.9391 37.69 25.9778C37.7484 26.0166 37.69 26.1586 37.8393 26.2878C37.9886 26.4169 37.8393 26.4234 37.8393 26.5138L38.0471 26.6171C38.3322 27.026 38.4823 27.5131 38.4765 28.0107C38.4707 28.5083 38.3093 28.9917 38.0146 29.3939C37.9049 29.5024 37.8226 29.6352 37.7744 29.7814C37.7225 29.833 37.6121 29.8911 37.5602 29.9363C37.5082 29.9816 37.6316 30.072 37.6965 30.1559C37.4239 30.2269 37.3914 30.453 37.1772 30.6144H36.9564C36.8088 30.7375 36.6477 30.8437 36.4761 30.9308C36.4241 30.9825 36.4371 31.1181 36.4436 31.1633C36.1408 31.388 35.7694 31.5021 35.3919 31.4862C35.34 31.4862 35.301 31.6347 35.2426 31.6412C34.957 31.6412 34.5934 31.6412 34.3338 31.6799C34.2169 31.6412 34.152 31.5572 34.0287 31.5249C33.9173 31.5474 33.8025 31.5474 33.6911 31.5249C33.4995 31.433 33.2995 31.3595 33.0939 31.3054C32.977 31.2731 32.7563 31.3829 32.6394 31.3054C32.274 31.0247 31.9524 30.6918 31.6851 30.3173C31.5423 30.1042 31.3086 30.0397 31.2307 29.8201C31.2307 29.7232 31.2307 29.5876 31.1398 29.5489C30.9061 29.4843 31.0035 29.3358 30.9905 29.2002C30.9424 29.0732 30.8696 28.9569 30.7763 28.8579C30.7049 28.7288 30.7763 28.535 30.7244 28.3607C30.7244 28.3155 30.7698 28.2638 30.7633 28.2186C30.6789 27.9539 30.8217 27.6697 30.7958 27.4437C30.7874 27.2886 30.8072 27.1333 30.8542 26.9852C30.9909 26.6579 31.1698 26.3496 31.3865 26.0682C31.3833 26.008 31.3833 25.9476 31.3865 25.8874C31.432 25.8358 31.4904 25.8358 31.5423 25.7841C31.6174 25.5526 31.7291 25.3346 31.8734 25.1383C32.1195 24.8872 32.3796 24.6501 32.6524 24.428C32.8454 24.2838 33.0179 24.1144 33.1653 23.9243C33.2172 23.8726 33.3925 23.9243 33.4444 23.9243C33.6002 23.7693 33.8339 23.7951 33.9897 23.6854C34.1455 23.5756 34.1196 23.8145 34.2818 23.7499C34.3805 23.7326 34.4738 23.6929 34.5545 23.6337C34.7168 23.5756 34.9051 23.6918 35.0803 23.7241C35.2653 23.7065 35.4507 23.7521 35.6062 23.8533C35.8528 24.0147 36.4176 23.963 36.5085 24.273C36.6124 24.4861 36.8785 24.6798 36.9954 24.8607Z" fill="#C2002F"/>
<path d="M46.5514 28.4252C46.557 28.2978 46.5372 28.1704 46.4929 28.0507C46.4929 27.9086 46.5903 27.7536 46.5384 27.5599C46.5384 27.5082 46.4345 27.4501 46.4475 27.4049C46.5324 27.1159 46.5588 26.813 46.5254 26.5138C46.5068 26.4424 46.4761 26.3747 46.4345 26.3136C46.4345 26.2684 46.4345 26.1844 46.4799 26.094C46.4693 25.8495 46.4143 25.6088 46.3177 25.3837C46.3177 25.2868 46.2203 25.2222 46.2073 25.0866C46.1943 24.951 46.1034 24.9704 46.1099 24.9252C46.124 24.5603 46.0757 24.1956 45.9671 23.8468C45.8762 23.4206 45.4672 23.1493 45.3179 22.7167C45.3179 22.6715 45.4543 22.7167 45.4932 22.7167C45.8512 22.9892 46.1181 23.3628 46.2592 23.7886C46.3112 23.9372 46.2592 24.0663 46.3501 24.1761C46.5813 24.5158 46.7077 24.9154 46.7137 25.3256C46.7137 25.3708 46.7916 25.3256 46.824 25.3966C46.8047 25.4553 46.8047 25.5187 46.824 25.5774C47.0253 25.8099 46.9019 26.0488 46.9409 26.2877C46.9606 26.3577 46.989 26.4249 47.0253 26.4879C47.0253 26.5331 46.9149 26.6429 46.9084 26.6881C46.9917 26.7963 47.052 26.9202 47.0855 27.0524C47.119 27.1845 47.125 27.322 47.1032 27.4566C47.2914 27.5405 47.207 27.7924 47.2525 27.9861C47.2638 28.0059 47.2797 28.0226 47.2989 28.035C47.3181 28.0474 47.3401 28.055 47.3628 28.0571C47.4258 27.9873 47.4704 27.903 47.4927 27.8117C47.5384 27.4797 47.5384 27.1429 47.4927 26.8108C47.4585 26.7481 47.4434 26.6769 47.4492 26.6058C47.4549 26.5348 47.4813 26.4669 47.5251 26.4104C47.4472 26.4104 47.4213 26.2942 47.3888 26.2425C47.246 25.6678 47.1875 25.0221 47.0188 24.4344C47.0447 24.4155 47.0631 24.388 47.0707 24.3569C46.9102 23.8292 46.6925 23.3203 46.4215 22.8394C46.4215 22.7425 46.2398 22.6327 46.1683 22.5359V22.4455C46.3696 22.4455 46.5254 22.6715 46.6293 22.82C46.8653 23.1006 47.0419 23.4256 47.1486 23.7757C47.2833 24.0699 47.4004 24.3718 47.4992 24.6798C47.5651 24.8533 47.6595 25.0147 47.7783 25.1577C47.8103 25.2952 47.8234 25.4364 47.8172 25.5774C47.8692 25.9132 47.973 26.2232 48.038 26.5654C48.1188 26.7894 48.1301 27.0324 48.0704 27.2628C47.9601 27.6503 48.2132 28.0636 48.3171 28.4059C48.3353 28.4804 48.3378 28.5579 48.3244 28.6335C48.311 28.7091 48.282 28.7811 48.2392 28.845C48.2392 28.8837 48.3041 28.9483 48.2976 28.9935C48.2197 29.1549 48.2976 29.3035 48.2457 29.4778C48.2003 29.5166 48.3041 29.6263 48.2457 29.7038C48.1873 29.7813 48.1613 29.7038 48.1094 29.7684C48.0574 29.833 48.1094 30.0396 48.1094 30.1688C47.986 30.4142 48.051 30.7435 47.8108 30.9179C47.7199 30.9179 47.7134 30.9889 47.6614 31.0212C47.6095 31.0535 47.7393 31.0858 47.7653 31.1374C47.7913 31.1891 47.6809 31.1374 47.6355 31.1955C47.59 31.2537 47.7848 31.3893 47.8172 31.4409C47.7523 31.7896 47.4927 32.0867 47.4992 32.5064C47.4992 32.5969 47.4602 32.726 47.4472 32.81C47.3628 33.0231 47.2135 33.1716 47.1356 33.3782C47.1356 33.4622 46.9474 33.4751 46.9344 33.559C46.9214 33.643 46.837 33.8561 46.7656 34.024C46.6942 34.1919 46.5903 34.0756 46.4929 34.1467C46.4187 34.2923 46.362 34.4462 46.3241 34.6052C46.2073 34.8054 46.058 35.0249 45.9411 35.2509C45.7857 35.5469 45.5741 35.81 45.3179 36.0259C45.2557 36.0256 45.1947 36.0436 45.1426 36.0775C45.0357 36.3215 44.8413 36.5171 44.5973 36.6264C44.5584 36.6264 44.4935 36.8137 44.448 36.846C44.2846 36.9993 44.1111 37.1417 43.9287 37.2722C43.8443 37.2722 43.7924 37.3368 43.7015 37.1753C43.4092 37.6702 43.0286 38.1078 42.5784 38.4668C42.3512 38.596 42.124 38.5831 41.9747 38.7316C41.5457 39.1132 41.0925 39.4669 40.6179 39.7907C40.5789 39.7907 40.4296 40.0038 40.4296 40.0038C40.2673 40.0038 40.3582 40.036 40.2154 40.0038C40.2154 40.0038 40.2154 40.2491 40.0077 40.2943C39.5857 40.3718 39.4754 40.8626 39.4429 41.0628C39.4104 41.263 39.3585 41.0951 39.3066 41.1338C39.2546 41.1726 39.3066 41.2372 39.2416 41.2759C39.0565 41.4249 38.8908 41.5963 38.7483 41.7861C38.7028 41.8248 38.6704 41.7861 38.6249 41.7861C38.4731 41.9506 38.3521 42.1409 38.2679 42.3479C38.1073 42.7458 37.8886 43.1179 37.6187 43.4521C37.5538 43.5296 37.768 43.8073 37.7485 43.9042C37.7291 44.001 37.5668 44.0656 37.5083 44.1948C37.4499 44.5306 37.4369 44.8986 37.3785 45.2538C37.3296 45.5544 37.3541 45.8622 37.4499 46.1514C37.4694 46.4309 37.4694 46.7114 37.4499 46.9909C37.4499 47.1976 37.6057 47.4171 37.5863 47.6367C37.5863 47.9402 37.5213 47.9014 37.5863 48.1533C37.5647 48.2837 37.5647 48.4168 37.5863 48.5472C37.5863 48.7474 37.5408 48.8701 37.5278 49.0703C37.4889 49.1155 37.398 49.2123 37.398 49.2575C37.3365 49.7606 37.086 50.222 36.6969 50.5491C36.4891 50.6847 36.3009 50.8913 36.0477 50.8719C35.8256 50.9531 35.6087 51.048 35.3985 51.1561C35.0772 51.2437 34.7406 51.2613 34.4118 51.2077C34.2237 51.1788 34.0433 51.1124 33.8816 51.0126C33.7198 50.9127 33.58 50.7814 33.4705 50.6266C33.3212 50.4522 33.0485 50.5168 32.9511 50.252C32.9187 50.1487 32.7045 50.097 32.6655 50.0389C32.4871 49.8579 32.3343 49.6537 32.2111 49.4319C32.1137 49.1671 32.2111 48.9863 32.0683 48.728C31.9384 48.573 31.8865 48.4633 31.7632 48.3083C31.6398 48.1533 31.8021 47.7981 31.6788 47.5915C31.5863 47.5267 31.5143 47.4371 31.471 47.3332C31.4311 47.0895 31.3703 46.8497 31.2893 46.6164C31.2341 46.1358 31.2341 45.6505 31.2893 45.1699C31.2893 45.1247 31.1529 45.0536 31.1659 45.002C31.228 44.641 31.267 44.2765 31.2828 43.9106C31.3217 43.7104 31.2828 43.549 31.484 43.3811C31.484 43.3811 31.3996 43.3101 31.4061 43.2584C31.4832 42.99 31.5375 42.7157 31.5684 42.4383C31.5684 42.3866 31.6853 42.3543 31.6982 42.3027C31.6499 42.0141 31.6499 41.7195 31.6982 41.4309C31.6982 41.3276 31.9774 41.179 32.0423 41.0886C32.024 40.9671 32.0444 40.8429 32.1007 40.7335C32.1007 40.6947 32.1916 40.7335 32.2435 40.6624C32.2955 40.5914 32.2435 40.5527 32.2435 40.5075C32.2435 40.3525 32.5227 40.2427 32.5422 40.1458C32.6469 39.865 32.8007 39.6048 32.9966 39.3774C33.0433 39.248 33.1089 39.1261 33.1913 39.0157C33.2433 38.977 33.2627 39.0157 33.2757 38.9705C33.2887 38.9253 33.2757 38.8285 33.2757 38.7833C33.3796 38.6735 33.5224 38.5637 33.5419 38.4345C33.5998 38.2905 33.6785 38.1556 33.7756 38.0342C33.9704 37.9092 34.1382 37.7467 34.269 37.5563C34.3728 37.4401 34.4897 37.4659 34.5871 37.3561C34.6844 37.2463 34.7753 36.988 34.8857 36.8331C35.1288 36.559 35.4034 36.3141 35.7036 36.1033C35.9225 35.9426 36.1501 35.7939 36.3853 35.6578C36.619 35.4834 36.7553 35.1541 36.9825 35.012C37.2097 34.8699 37.2876 34.8958 37.4304 34.7924C37.5733 34.6891 37.6901 34.4889 37.8979 34.4437C38.0954 34.4154 38.2878 34.3588 38.4691 34.2758C38.7418 34.1144 38.6249 34.0692 38.8976 33.9013C39.1293 33.7439 39.3723 33.6036 39.6247 33.4815C39.6534 33.4639 39.6782 33.4404 39.6972 33.4126C39.7162 33.3847 39.7291 33.3532 39.735 33.3201C39.9646 33.0922 40.2246 32.8966 40.5075 32.7389C40.5984 32.7389 40.6958 32.8229 40.7997 32.7389C40.9035 32.655 40.7412 32.5904 40.7997 32.5064C40.9331 32.3452 41.0785 32.1941 41.2346 32.0544C41.2801 32.0221 41.3904 32.0932 41.4813 32.0544C41.5722 32.0157 41.5462 31.9382 41.5917 31.8994C41.6371 31.8607 41.5462 31.7122 41.5917 31.6282C41.6371 31.5443 41.7215 31.3828 41.8059 31.3634C41.8903 31.3441 42.1305 31.202 42.1045 31.1116C42.1133 31.021 42.1438 30.9338 42.1935 30.8574C42.2432 30.781 42.3107 30.7176 42.3901 30.6725C42.3901 30.6273 42.3901 30.5821 42.3901 30.5433C42.494 30.4271 42.5914 30.3561 42.6953 30.2463C42.7991 30.1365 42.7537 29.8976 42.8186 29.7749C43.0428 29.5877 43.2056 29.338 43.286 29.0581C43.286 28.916 43.1821 28.7158 43.2406 28.5931C43.299 28.4704 43.4743 28.464 43.4873 28.38C43.4865 28.1913 43.4669 28.0031 43.4288 27.8182C43.4288 27.6891 43.5911 27.5857 43.5781 27.4437C43.5781 27.082 43.5781 26.7204 43.5327 26.3459C43.656 26.3459 43.6755 26.2425 43.6885 26.1521C43.6263 25.8725 43.5483 25.5965 43.4548 25.3256C43.4548 25.1447 43.5976 24.9962 43.5911 24.8154C43.5475 24.6434 43.444 24.4924 43.299 24.3892C43.1627 24.2213 43.2471 23.9695 43.2016 23.7434C43.1562 23.5174 42.9874 23.3302 42.9549 23.0525C42.9549 22.9169 42.7667 22.9233 42.7147 22.7748C42.6546 22.5778 42.6218 22.3736 42.6174 22.1678C42.6174 22.0709 42.468 22.0838 42.3901 22.0257C42.2343 21.7674 42.2863 21.2314 41.9357 21.1087C41.9682 20.9344 41.8124 20.9021 41.754 20.7536C41.8655 20.7501 41.9754 20.7811 42.0684 20.8425C42.1614 20.9038 42.233 20.9923 42.2733 21.0958C42.2733 21.1475 42.4226 21.1733 42.4616 21.1798C42.5719 21.296 42.5589 21.5608 42.6758 21.6318C42.7926 21.7028 43.0328 21.7093 43.0848 21.8578C43.1367 22.0063 43.3509 22.2324 43.4418 22.4325C43.4356 22.5003 43.4516 22.5682 43.4873 22.6263C43.6301 22.749 43.6495 22.891 43.7534 23.0008C43.9936 23.2785 44.2338 23.5626 44.117 23.9436C44.0455 24.1115 44.2663 24.0663 44.3312 24.1696C44.487 24.4344 44.4221 24.8154 44.6298 25.0091C44.6439 25.4418 44.7501 25.8666 44.9414 26.2555C44.8541 26.4704 44.8163 26.702 44.8309 26.9334C44.8455 27.1647 44.9121 27.3898 45.0258 27.5922C45.0258 27.5922 45.1556 27.5922 45.1621 27.5341C45.2011 27.3145 45.5971 27.2435 45.5322 27.1402C45.4287 26.8384 45.357 26.5267 45.3179 26.2103C45.3567 25.8626 45.3567 25.5118 45.3179 25.1641L45.2205 25.0091C45.1575 24.8155 45.1397 24.6101 45.1686 24.4086C45.1686 24.3053 45.0712 24.2471 45.0453 24.1503C45.0193 24.0534 45.0453 24.0211 45.0777 23.9759C45.1102 23.9307 45.279 24.0211 45.3569 24.0405C45.4348 24.0599 45.3569 24.2213 45.3958 24.273C45.5257 24.4861 45.7204 24.57 45.7594 24.8089C45.7594 24.8477 45.7594 24.9381 45.7594 24.9833C45.7594 25.261 45.9606 25.4805 45.9996 25.713C46.0385 25.9455 45.8957 26.0488 45.9541 26.2038C46.1133 26.5694 46.1672 26.9718 46.1099 27.3662C46.0775 27.5405 46.3047 27.6826 46.2398 27.8053C46.1748 27.928 46.2398 27.9474 46.1878 28.0701C46.1359 28.1927 46.0969 28.1346 46.0904 28.1798C46.2073 28.4317 46.0255 28.8256 45.9866 29.0322C45.9866 29.0774 46.1229 29.1226 46.1554 28.9612C46.1878 28.7998 46.3371 28.8708 46.4215 28.845C46.4728 28.7888 46.5111 28.7221 46.5335 28.6495C46.556 28.577 46.562 28.5004 46.5514 28.4252ZM47.4083 29.297C47.4623 29.086 47.4884 28.8689 47.4862 28.6512C47.4018 28.4058 47.22 28.6512 47.0967 28.6512C47.1313 28.9069 47.0835 29.1669 46.9603 29.3939C46.9019 29.4714 46.863 29.6909 46.9603 29.6715C47.0577 29.6522 47.4018 29.5682 47.4083 29.297ZM47.0707 30.4917C47.0921 30.4473 47.0993 30.3974 47.0911 30.3489C47.083 30.3004 47.06 30.2555 47.0253 30.2204C46.9149 30.1494 46.7656 30.2527 46.7007 30.3754C46.6358 30.4981 46.7007 30.6919 46.8565 30.6789C46.8954 30.6919 47.0123 30.5692 47.0707 30.4917Z" fill="#0081C8"/>
<path d="M44.7206 23.0524C44.9003 23.2481 45.0551 23.4649 45.1815 23.6982V23.7821C44.8829 24.034 44.6297 23.6207 44.5324 23.3753C44.4341 23.1144 44.2789 22.8784 44.0779 22.6843C44.0779 22.6391 44.0779 22.6004 44.0779 22.5552C43.9741 22.439 43.8377 22.2775 43.9741 22.2129C44.1104 22.1484 44.1234 22.2904 44.2402 22.3615C44.4285 22.581 44.4609 22.8587 44.7206 23.0524Z" fill="#0081C8"/>
<path d="M45.928 21.9354C45.928 21.9741 45.8566 22.0516 45.8501 22.0968C45.6924 21.9629 45.5585 21.8036 45.4541 21.6254C45.4151 21.6254 45.3307 21.5931 45.3048 21.5414C45.2788 21.4898 45.3048 21.4833 45.3048 21.4446C45.4346 21.4446 45.5385 21.5479 45.6423 21.6254C45.7462 21.7029 45.7332 21.6254 45.7722 21.6254C45.8195 21.6625 45.858 21.7095 45.8849 21.763C45.9118 21.8166 45.9265 21.8755 45.928 21.9354Z" fill="#0081C8"/>
<path d="M27.894 29.9556C27.9398 29.9915 27.9812 30.0327 28.0173 30.0783C28.0479 30.0959 28.0826 30.1051 28.1179 30.1051C28.1532 30.1051 28.188 30.0959 28.2185 30.0783C28.29 30.0783 28.3484 30.2527 28.4133 30.2591C28.4782 30.2656 28.5691 30.4722 28.6665 30.5562C28.7639 30.6401 28.7963 30.6595 28.8612 30.6983C28.9334 30.8095 29.0136 30.9152 29.1014 31.0147C29.1663 31.0922 29.2637 31.0599 29.3351 31.0663C29.4065 31.0728 29.5169 31.3053 29.6078 31.4215C29.6078 31.4215 29.6987 31.5377 29.6987 31.5765C29.768 31.6359 29.8417 31.6898 29.9194 31.7379C29.9518 31.7767 29.9194 31.8477 29.9778 31.8865C30.2513 32.2224 30.5049 32.5738 30.7373 32.9391C30.7418 32.9755 30.7418 33.0124 30.7373 33.0488C30.9463 33.3202 31.1371 33.605 31.3086 33.9012C31.373 34.0488 31.4293 34.1997 31.4774 34.3533C31.5358 34.4308 31.6007 34.476 31.6657 34.5535C31.7638 34.7161 31.8299 34.8958 31.8604 35.083C31.8604 35.154 31.8085 35.3671 31.6786 35.2509C31.5488 35.1346 31.5423 34.8699 31.38 34.7472C31.3722 34.6857 31.3475 34.6276 31.3086 34.5793C31.2437 34.5018 31.1333 34.5083 31.1074 34.3985C31.0814 34.2887 30.9905 34.1983 30.9256 34.1208C30.7698 33.8948 30.5361 33.8108 30.3478 33.5848C30.3292 33.5824 30.3103 33.584 30.2923 33.5896C30.2744 33.5952 30.2579 33.6046 30.244 33.6171C30.2115 33.6881 30.1076 33.7915 30.1985 33.9077C30.2894 34.0239 30.3933 34.1337 30.5556 34.2177C30.7179 34.3016 30.6789 34.5147 30.7373 34.702C30.7976 34.7809 30.8754 34.845 30.9646 34.8893C31.0619 34.9667 31.023 35.083 31.1139 35.2057C31.2048 35.3284 31.0749 35.2703 31.0749 35.309C31.0749 35.3477 31.2632 35.3994 31.3606 35.5156C31.432 35.4511 31.5293 35.5156 31.5878 35.6061C31.4774 35.7094 31.5034 35.7804 31.4644 35.8902C31.4255 36 31.6072 36.2324 31.7695 36.3164C31.9318 36.4003 31.8539 36.5037 31.9513 36.5876C32.0487 36.6716 32.172 36.7168 32.2629 36.8718C32.3538 37.0267 32.224 36.9751 32.185 37.0461C32.1461 37.1171 32.3083 37.2011 32.3668 37.2463C32.4278 37.2932 32.4713 37.3592 32.4901 37.4336C32.3862 37.4659 32.1915 37.3302 32.0876 37.3173C31.9838 37.3044 31.9059 37.1494 31.776 37.1236C31.6462 37.0978 31.7046 37.214 31.6592 37.2075L31.4644 37.1688C31.393 37.1688 31.2242 36.9751 31.1528 36.9622C31.0814 36.9492 30.9646 37.0978 30.8867 37.0849C30.7451 37.0715 30.6068 37.0344 30.4777 36.9751C30.368 36.9312 30.2616 36.8794 30.1596 36.8201C30.0947 36.7878 30.1141 36.7039 30.0557 36.6651C29.9973 36.6264 29.861 36.6264 29.8025 36.5876C29.5623 36.4391 29.3351 36.1098 29.1534 36C28.9716 35.8902 28.9002 35.8579 28.7509 35.7933C28.6016 35.7287 28.6275 35.6448 28.5366 35.6125C28.251 35.5156 28.0238 35.3413 27.6992 35.2509C27.4159 35.2128 27.1277 35.2309 26.8514 35.304C26.5751 35.3772 26.3161 35.504 26.0893 35.6771C26.0531 35.6678 26.0151 35.6678 25.9789 35.6771C25.8646 35.761 25.7429 35.8345 25.6154 35.8966C25.4434 35.996 25.2631 36.0803 25.0765 36.1485C25.0246 36.1808 25.0181 36.2841 24.9662 36.3099C24.9142 36.3358 24.739 36.3681 24.6611 36.4197C24.5832 36.4714 24.5832 36.5489 24.5118 36.6005C24.3667 36.7186 24.2075 36.8184 24.0379 36.8976C23.6505 37.0006 23.2554 37.0719 22.8564 37.1107C22.6227 37.1107 22.4604 37.3109 22.1033 37.3109C21.5752 37.3625 21.0445 37.2424 20.5907 36.9686C20.4999 36.8847 20.4804 36.6651 20.4155 36.6199C20.2272 36.4972 20.2402 36.2454 20.1883 36.0581C20.1233 36.0129 19.9935 36.0064 20 35.8966C20.0741 35.3726 20.2996 34.8813 20.6492 34.4824C20.7271 34.3468 20.8959 34.2887 20.9088 34.1014C21.0551 33.8968 21.2157 33.7026 21.3892 33.5202C21.4282 33.4492 21.3892 33.333 21.3892 33.2684C21.7426 32.7793 22.1474 32.329 22.5967 31.9252C22.707 31.8283 22.785 31.6863 22.9537 31.6669C23.1225 31.6475 23.0901 31.6669 23.1225 31.6023C23.1976 31.4606 23.3126 31.3439 23.4536 31.2665C23.8431 31.0018 24.1677 30.6208 24.6091 30.5368C24.674 30.5045 24.713 30.4335 24.7844 30.4012C24.8558 30.3689 24.9857 30.4012 25.0506 30.4012C25.3817 30.2527 25.6997 29.9363 26.0178 29.8911C26.0893 29.8588 26.1282 29.7877 26.1607 29.7942C26.4593 29.7942 26.8098 29.5553 27.0955 29.8329C27.3676 29.7713 27.6532 29.8152 27.894 29.9556ZM30.192 33.1844V33.0747C30.0622 32.9972 30.0038 32.7712 29.8415 32.726C29.809 32.726 29.7376 32.7582 29.7376 32.797C29.746 32.9942 29.8064 33.1858 29.9129 33.3523C29.9518 33.2103 30.0557 33.2103 30.1141 33.3523C30.1632 33.297 30.1909 33.226 30.192 33.1522V33.1844Z" fill="#00943B"/>
<path d="M62.1963 43.3682L60.7032 44.9374L56.4965 40.8239C55.9912 41.7547 55.3329 42.5951 54.549 43.31C53.8483 43.9448 53.0799 44.5013 52.2574 44.9696L50.7903 43.3036C51.5633 42.924 52.278 42.4369 52.9131 41.8571C53.4525 41.3593 53.9259 40.795 54.3218 40.1781C54.6797 39.5988 54.955 38.9729 55.1398 38.3183C55.3074 37.7145 55.3947 37.0914 55.3994 36.465V33.5526H57.717V36.0258C57.7292 36.4874 57.7075 36.9493 57.6521 37.4078C57.5871 37.8469 57.5092 38.2731 57.4119 38.6993L62.1963 43.3682ZM67.0067 50.4715H64.8319V39.4096H60.2488V37.3044H64.8319V31.6992H67.0261L67.0067 50.4715Z" fill="#231815"/>
<path d="M86.9168 42.2575H79.0748V43.2842H82.9699V48.1339H75.4329V49.0638H83.4567V51.1561H73.1543V46.132H80.6523V45.3055H73.0505V43.2842H76.8416V42.2575H69.1489V40.1781H86.9168V42.2575ZM82.7686 35.619C82.7744 36.1801 82.6429 36.7341 82.3856 37.2334C82.1344 37.7281 81.7855 38.1673 81.3599 38.525C80.8899 38.8814 80.3602 39.1525 79.7954 39.3257C78.5442 39.7 77.21 39.7 75.9588 39.3257C75.3945 39.1604 74.8646 38.8957 74.3943 38.5443C73.9594 38.209 73.6028 37.7837 73.3491 37.298C73.0889 36.7905 72.9574 36.2274 72.9661 35.6578C72.9571 35.0772 73.0838 34.5024 73.3361 33.9788C73.5848 33.4789 73.9391 33.0384 74.3748 32.6873C74.8284 32.318 75.3483 32.0375 75.9068 31.8607C77.1618 31.4818 78.5015 31.4818 79.7564 31.8607C80.3238 32.0402 80.8538 32.3202 81.321 32.6873C81.7626 33.0374 82.1235 33.4778 82.3791 33.9788C82.6361 34.4877 82.7695 35.0495 82.7686 35.619ZM80.49 35.619C80.5048 35.3173 80.4423 35.0167 80.3083 34.7456C80.1743 34.4745 79.9732 34.2418 79.724 34.0692C79.175 33.693 78.5208 33.4987 77.8544 33.5138C77.1857 33.4899 76.5274 33.6825 75.9782 34.0627C75.725 34.2289 75.5187 34.4568 75.3789 34.7247C75.2392 34.9925 75.1706 35.2915 75.1798 35.5932C75.1679 35.884 75.2309 36.1731 75.3627 36.433C75.4944 36.6928 75.6907 36.915 75.9328 37.0784C76.4845 37.4519 77.142 37.6398 77.8089 37.6144C78.4818 37.6412 79.1478 37.4705 79.724 37.1236C79.9768 36.9592 80.181 36.7307 80.3156 36.4617C80.4503 36.1928 80.5105 35.893 80.49 35.5932V35.619Z" fill="#231815"/>
<path d="M105.581 43.6072H87.8389V41.5213H105.581V43.6072ZM101.725 51.1561H99.5045V46.8618H91.5651V44.7631H101.725V51.1561ZM101.686 40.4429H91.6495V32.3257H101.556V34.4115H93.8502V35.2962H101.309V37.4014H93.8502V38.37H101.686V40.4429Z" fill="#231815"/>
<path d="M115.533 41.2823H107.093V32.7066H109.287V35.1799H113.306V32.7066H115.526L115.533 41.2823ZM113.312 39.203V37.2657H109.294V39.203H113.312ZM121.752 51.1625H111.592V45.99H118.993V44.9115H111.488V42.8322H121.271V47.9983H113.916V49.0702H121.771L121.752 51.1625ZM121.92 42.2316H119.746V40.2362H116.175V38.1698H119.746V36.6845H116.175V34.6052H119.746V31.6992H121.92V42.2316Z" fill="#231815"/>
<path d="M135.462 43.4069L133.95 44.9697L129.762 40.8691C129.263 41.8092 128.604 42.6567 127.815 43.3746C127.104 44.014 126.322 44.5708 125.484 45.0342L123.998 43.4069C124.775 43.0009 125.495 42.495 126.14 41.9023C126.695 41.3938 127.18 40.814 127.581 40.1781C127.942 39.6058 128.222 38.9864 128.412 38.3377C128.583 37.7411 128.67 37.124 128.672 36.5037V33.5526H130.996V36.0904C130.997 36.5485 130.965 37.0061 130.899 37.4594C130.843 37.8787 130.765 38.2948 130.665 38.7058L135.462 43.4069ZM140.006 50.4328H137.793V31.7057H140.006V50.4328Z" fill="#231815"/>
</g>
<line x1="156.5" y1="10.5" x2="156.5" y2="65.5" stroke="#CCCCCC"/>
<path d="M174.197 56.4297H172.537V63.5H174.197V56.4297ZM177.312 60.4629C177.312 59.8477 177.673 59.4814 178.22 59.4766C178.767 59.4814 179.089 59.8379 179.089 60.4336V63.5H180.73V60.1211C180.735 58.9199 180.012 58.1289 178.894 58.1289C178.113 58.1289 177.522 58.5244 177.283 59.1641H177.224V58.1973H175.662V63.5H177.312V60.4629ZM185.144 58.1973H184.138V57.9434C184.133 57.5381 184.377 57.3818 184.792 57.377C184.865 57.3818 185.017 57.3867 185.241 57.4062V56.1855C184.958 56.1318 184.67 56.0977 184.294 56.0977C183.191 56.0977 182.488 56.7031 182.488 57.9043V58.1973H181.765V59.4082H182.488V63.5H184.138V59.4082H185.144V58.1973ZM188.62 63.5977C190.28 63.5977 191.286 62.499 191.286 60.8633C191.286 59.2275 190.28 58.1289 188.62 58.1289C186.965 58.1289 185.954 59.2275 185.954 60.8633C185.954 62.499 186.965 63.5977 188.62 63.5977ZM187.634 60.8535C187.629 59.9697 187.98 59.3545 188.63 59.3496C189.26 59.3545 189.611 59.9697 189.606 60.8535C189.611 61.7422 189.26 62.3525 188.63 62.3574C187.98 62.3525 187.629 61.7422 187.634 60.8535ZM192.536 63.5H194.186V60.5996C194.181 59.96 194.635 59.5303 195.25 59.5352C195.451 59.5303 195.748 59.5645 195.905 59.6133V58.1777C195.768 58.1484 195.587 58.124 195.436 58.1191C194.85 58.124 194.381 58.4609 194.186 59.1543H194.137V58.1973H192.536V63.5ZM196.969 63.5H198.619V60.3555C198.614 59.8135 198.937 59.4668 199.391 59.4668C199.835 59.4668 200.133 59.7793 200.133 60.2773V63.5H201.715V60.3164C201.715 59.8037 202.003 59.4668 202.477 59.4668C202.921 59.4668 203.233 59.7549 203.229 60.2969V63.5H204.879V59.9258C204.879 58.8027 204.186 58.1289 203.189 58.1289C202.408 58.1289 201.793 58.5342 201.588 59.1641H201.529C201.388 58.5293 200.826 58.1289 200.094 58.1289C199.366 58.1289 198.814 58.5195 198.59 59.1641H198.531V58.1973H196.969V63.5ZM206.07 62.0254C206.065 63.0752 206.802 63.5928 207.818 63.5977C208.56 63.5928 209.073 63.2949 209.361 62.7578H209.4V63.5H210.953V59.8965C210.948 58.749 209.927 58.1289 208.619 58.1289C207.129 58.1289 206.338 58.9004 206.265 59.8379H207.798C207.862 59.4912 208.145 59.2959 208.58 59.3008C209.029 59.2959 209.302 59.5059 209.302 59.877V60.3066C209.078 60.3164 208.419 60.3408 208.033 60.3652C206.978 60.4287 206.065 60.8486 206.07 62.0254ZM207.632 61.957C207.628 61.6055 207.891 61.376 208.306 61.332C208.555 61.3076 209.112 61.2783 209.312 61.2734V61.6152C209.317 62.1377 208.878 62.5039 208.316 62.5039C207.916 62.5039 207.628 62.3135 207.632 61.957ZM215.318 58.1973H214.351V56.9277H212.71V58.1973H211.997V59.4082H212.71V62.0254C212.7 63.0947 213.399 63.5732 214.566 63.5781C214.951 63.5732 215.225 63.5439 215.386 63.5195V62.2598C215.2 62.2744 214.937 62.2891 214.8 62.2793C214.522 62.2744 214.356 62.1719 214.351 61.8398V59.4082H215.318V58.1973ZM216.567 63.5H218.218V58.1973H216.567V63.5ZM216.548 56.7715C216.548 57.2109 216.929 57.5625 217.397 57.5625C217.871 57.5625 218.252 57.2109 218.257 56.7715C218.252 56.332 217.871 55.9756 217.397 55.9805C216.929 55.9756 216.548 56.332 216.548 56.7715ZM222.133 63.5977C223.793 63.5977 224.799 62.499 224.799 60.8633C224.799 59.2275 223.793 58.1289 222.133 58.1289C220.478 58.1289 219.467 59.2275 219.467 60.8633C219.467 62.499 220.478 63.5977 222.133 63.5977ZM221.147 60.8535C221.142 59.9697 221.494 59.3545 222.143 59.3496C222.773 59.3545 223.124 59.9697 223.12 60.8535C223.124 61.7422 222.773 62.3525 222.143 62.3574C221.494 62.3525 221.142 61.7422 221.147 60.8535ZM227.699 60.4629C227.699 59.8477 228.061 59.4814 228.607 59.4766C229.154 59.4814 229.477 59.8379 229.477 60.4336V63.5H231.117V60.1211C231.122 58.9199 230.399 58.1289 229.281 58.1289C228.5 58.1289 227.909 58.5244 227.67 59.1641H227.611V58.1973H226.049V63.5H227.699V60.4629ZM239.017 58.5293H240.618C240.604 57.2207 239.554 56.332 237.923 56.332C236.321 56.332 235.164 57.2061 235.169 58.5195C235.169 59.584 235.916 60.1895 237.132 60.4727L237.874 60.6484C238.655 60.8242 239.017 61.0391 239.027 61.4492C239.017 61.9033 238.597 62.2109 237.894 62.2109C237.137 62.2109 236.624 61.8594 236.585 61.1758H234.984C235.013 62.8018 236.151 63.5928 237.913 63.5977C239.671 63.5928 240.711 62.7871 240.716 61.4492C240.711 60.3164 239.92 59.6377 238.558 59.3398L237.943 59.1934C237.308 59.0566 236.878 58.8418 236.888 58.4023C236.893 58.002 237.239 57.709 237.913 57.709C238.592 57.709 238.973 58.0166 239.017 58.5293ZM245.384 61.2148C245.388 61.8545 244.973 62.2012 244.466 62.2012C243.938 62.2012 243.616 61.8447 243.616 61.2637V58.1973H241.966V61.5762C241.971 62.7822 242.698 63.5684 243.782 63.5684C244.578 63.5684 245.169 63.1631 245.403 62.5234H245.462V63.5H247.024V58.1973H245.384V61.2148ZM248.489 65.4922H250.139V62.6406H250.178C250.383 63.124 250.857 63.5781 251.672 63.5781C252.849 63.5781 253.791 62.6504 253.791 60.8535C253.791 58.9932 252.795 58.1289 251.672 58.1289C250.828 58.1289 250.373 58.627 250.178 59.1055H250.12V58.1973H248.489V65.4922ZM250.1 60.8438C250.1 59.9648 250.466 59.418 251.106 59.418C251.755 59.418 252.107 59.9795 252.102 60.8438C252.107 61.7178 251.75 62.2891 251.106 62.2891C250.471 62.2891 250.1 61.7227 250.1 60.8438ZM255.061 65.4922H256.711V62.6406H256.75C256.955 63.124 257.429 63.5781 258.244 63.5781C259.421 63.5781 260.363 62.6504 260.363 60.8535C260.363 58.9932 259.367 58.1289 258.244 58.1289C257.399 58.1289 256.945 58.627 256.75 59.1055H256.691V58.1973H255.061V65.4922ZM256.672 60.8438C256.672 59.9648 257.038 59.418 257.678 59.418C258.327 59.418 258.679 59.9795 258.674 60.8438C258.679 61.7178 258.322 62.2891 257.678 62.2891C257.043 62.2891 256.672 61.7227 256.672 60.8438ZM264.093 63.5977C265.754 63.5977 266.759 62.499 266.759 60.8633C266.759 59.2275 265.754 58.1289 264.093 58.1289C262.438 58.1289 261.427 59.2275 261.427 60.8633C261.427 62.499 262.438 63.5977 264.093 63.5977ZM263.107 60.8535C263.102 59.9697 263.454 59.3545 264.103 59.3496C264.733 59.3545 265.085 59.9697 265.08 60.8535C265.085 61.7422 264.733 62.3525 264.103 62.3574C263.454 62.3525 263.102 61.7422 263.107 60.8535ZM268.009 63.5H269.659V60.5996C269.654 59.96 270.109 59.5303 270.724 59.5352C270.924 59.5303 271.222 59.5645 271.378 59.6133V58.1777C271.241 58.1484 271.061 58.124 270.909 58.1191C270.323 58.124 269.855 58.4609 269.659 59.1543H269.611V58.1973H268.009V63.5ZM275.655 58.1973H274.688V56.9277H273.048V58.1973H272.335V59.4082H273.048V62.0254C273.038 63.0947 273.736 63.5732 274.903 63.5781C275.289 63.5732 275.562 63.5439 275.723 63.5195V62.2598C275.538 62.2744 275.274 62.2891 275.137 62.2793C274.859 62.2744 274.693 62.1719 274.688 61.8398V59.4082H275.655V58.1973ZM284.248 58.9785H285.928C285.752 57.2939 284.497 56.332 282.803 56.332C280.918 56.332 279.463 57.6309 279.463 59.9648C279.463 62.2891 280.889 63.5977 282.803 63.5977C284.717 63.5977 285.796 62.2988 285.928 61.0391L284.248 61.0293C284.121 61.7227 283.594 62.1328 282.832 62.1328C281.816 62.1328 281.162 61.3906 281.162 59.9648C281.162 58.5879 281.802 57.792 282.842 57.7969C283.633 57.792 284.155 58.251 284.248 58.9785ZM289.755 63.5977C291.128 63.5977 292.036 62.9336 292.236 61.8984H290.703C290.571 62.2109 290.234 62.4062 289.785 62.4062C289.116 62.4062 288.706 61.9619 288.701 61.2832V61.2539H292.255V60.834C292.255 59.0762 291.186 58.1289 289.697 58.1289C288.105 58.1289 287.08 59.2275 287.08 60.873C287.08 62.5625 288.095 63.5977 289.755 63.5977ZM288.701 60.2871C288.725 59.7402 289.155 59.3203 289.736 59.3203C290.302 59.3203 290.713 59.7207 290.722 60.2871H288.701ZM295.155 60.4629C295.155 59.8477 295.517 59.4814 296.064 59.4766C296.611 59.4814 296.933 59.8379 296.933 60.4336V63.5H298.573V60.1211C298.578 58.9199 297.856 58.1289 296.738 58.1289C295.956 58.1289 295.365 58.5244 295.126 59.1641H295.068V58.1973H293.505V63.5H295.155V60.4629ZM302.968 58.1973H302.001V56.9277H300.36V58.1973H299.647V59.4082H300.36V62.0254C300.35 63.0947 301.049 63.5732 302.216 63.5781C302.601 63.5732 302.875 63.5439 303.036 63.5195V62.2598C302.85 62.2744 302.587 62.2891 302.45 62.2793C302.172 62.2744 302.006 62.1719 302.001 61.8398V59.4082H302.968V58.1973ZM306.629 63.5977C308.001 63.5977 308.91 62.9336 309.11 61.8984H307.577C307.445 62.2109 307.108 62.4062 306.659 62.4062C305.99 62.4062 305.579 61.9619 305.575 61.2832V61.2539H309.129V60.834C309.129 59.0762 308.06 58.1289 306.571 58.1289C304.979 58.1289 303.954 59.2275 303.954 60.873C303.954 62.5625 304.969 63.5977 306.629 63.5977ZM305.575 60.2871C305.599 59.7402 306.029 59.3203 306.61 59.3203C307.176 59.3203 307.586 59.7207 307.596 60.2871H305.575ZM310.379 63.5H312.029V60.5996C312.024 59.96 312.479 59.5303 313.094 59.5352C313.294 59.5303 313.592 59.5645 313.748 59.6133V58.1777C313.611 58.1484 313.431 58.124 313.279 58.1191C312.693 58.124 312.225 58.4609 312.029 59.1543H311.98V58.1973H310.379V63.5Z" fill="#A2A2A2"/>
<path d="M177.332 15.7402V13.6309H175.677V15.7402C175.669 18.2158 174.468 20.7646 172.308 21.7754L173.333 23.0938C174.856 22.3247 175.94 20.8013 176.519 18.9702C177.083 20.7061 178.138 22.1123 179.632 22.8447L180.613 21.541C178.504 20.6182 177.325 18.2012 177.332 15.7402ZM179.148 18.1572H181.932V25.8184H183.543V12.5615H181.932V16.8389H179.148V18.1572ZM191.424 12.6934C188.414 12.7007 186.648 13.5063 186.648 14.9639C186.648 16.4434 188.414 17.2417 191.424 17.249C194.441 17.2417 196.192 16.4434 196.199 14.9639C196.192 13.5063 194.441 12.7007 191.424 12.6934ZM185.403 19.2119H190.604V20.2227H186.824V21.4238H194.368V22.3027H186.839V25.6865H196.331V24.4414H188.436V23.46H195.965V20.2227H192.229V19.2119H197.474V17.9375H185.403V19.2119ZM188.362 14.9639C188.355 14.2827 189.41 13.9165 191.424 13.9092C193.467 13.9165 194.515 14.2827 194.515 14.9639C194.515 15.6963 193.467 16.0332 191.424 16.0479C189.41 16.0332 188.355 15.6963 188.362 14.9639ZM203.362 16.3262V15.2129H206.263V13.8652H198.792V15.2129H201.707V16.3262C201.7 18.5747 200.396 21.043 198.309 22.0098L199.246 23.2842C200.792 22.5518 201.956 21.0283 202.564 19.2119C203.172 20.8965 204.314 22.2808 205.882 22.9619L206.775 21.6729C204.637 20.7793 203.362 18.4941 203.362 16.3262ZM207.742 25.8037H209.383V12.5615H207.742V25.8037ZM217.469 20.7354C214.7 20.7354 212.986 21.6655 212.986 23.2549C212.986 24.8662 214.7 25.7964 217.469 25.8037C220.215 25.7964 221.9 24.8662 221.907 23.2549C221.9 21.6655 220.215 20.7354 217.469 20.7354ZM211.785 19.5781H218.099V13.3965H216.487V15.1836H213.396V13.3965H211.785V19.5781ZM213.396 18.2891V16.458H216.487V18.2891H213.396ZM214.612 23.2549C214.612 22.4346 215.652 22.0171 217.469 22.0098C219.278 22.0171 220.296 22.4346 220.296 23.2549C220.296 24.0752 219.278 24.522 217.469 24.5146C215.652 24.522 214.612 24.0752 214.612 23.2549ZM220.149 20.4131H221.775V17.0879H223.621V15.7256H221.775V12.5615H220.149V20.4131ZM235.062 19.2266H227.43V17.6445H234.637V16.3555H227.43V14.8613H234.944V13.543H225.774V20.5303H229.51V22.9473H224.295V24.251H236.395V22.9473H231.15V20.5303H235.062V19.2266ZM242.254 16.3262V15.2129H245.154V13.8652H237.684V15.2129H240.599V16.3262C240.591 18.5747 239.288 21.043 237.2 22.0098L238.138 23.2842C239.683 22.5518 240.848 21.0283 241.456 19.2119C242.063 20.8965 243.206 22.2808 244.773 22.9619L245.667 21.6729C243.528 20.7793 242.254 18.4941 242.254 16.3262ZM246.634 25.8037H248.274V12.5615H246.634V25.8037ZM257.122 13.6602V12.9863H255.408V13.6602C255.408 15.3374 253.548 17.0146 250.75 17.3809L251.395 18.6992C253.621 18.3623 255.401 17.2563 256.265 15.7622C257.129 17.2563 258.917 18.3623 261.165 18.6992L261.81 17.3809C258.982 17.0146 257.115 15.3228 257.122 13.6602ZM250.223 21.1895H255.423V25.8037H257.034V21.1895H262.293V19.8418H250.223V21.1895ZM275.257 18.9336H272.4V17.2563C273.404 16.8389 273.975 16.1724 273.982 15.3008C273.975 13.7114 272.122 12.7812 269.207 12.7812C266.285 12.7812 264.432 13.7114 264.432 15.3008C264.432 16.165 264.996 16.8315 265.999 17.2563V18.9336H263.187V20.2373H275.257V18.9336ZM264.593 23.4014C264.593 24.9395 266.314 25.7744 269.207 25.7744C272.056 25.7744 273.785 24.9395 273.792 23.4014C273.785 21.8779 272.056 21.0283 269.207 21.043C266.314 21.0283 264.593 21.8779 264.593 23.4014ZM266.131 15.3008C266.116 14.4878 267.251 14.0337 269.207 14.041C271.155 14.0337 272.298 14.4878 272.298 15.3008C272.298 16.1064 271.155 16.5386 269.207 16.5312C267.251 16.5386 266.116 16.1064 266.131 15.3008ZM266.248 23.4014C266.241 22.6616 267.281 22.2808 269.207 22.2734C271.104 22.2808 272.151 22.6616 272.166 23.4014C272.151 24.1484 271.104 24.5513 269.207 24.5439C267.281 24.5513 266.241 24.1484 266.248 23.4014ZM267.64 18.9336V17.6738C268.116 17.7397 268.643 17.7764 269.207 17.7764C269.771 17.7764 270.298 17.7397 270.774 17.6738V18.9336H267.64ZM280.472 13.1475C278.479 13.1401 277.029 14.2681 277.029 15.9307C277.029 17.564 278.479 18.7065 280.472 18.6992C282.486 18.7065 283.943 17.564 283.943 15.9307C283.943 14.2681 282.486 13.1401 280.472 13.1475ZM276.165 19.6074L276.37 20.9551C277.366 20.9478 278.516 20.9331 279.739 20.8818V25.3936H281.38V20.7866C282.537 20.6987 283.724 20.5596 284.866 20.3398L284.749 19.1387C281.9 19.5635 278.553 19.6074 276.165 19.6074ZM278.611 15.9307C278.604 15.0151 279.388 14.4512 280.472 14.4658C281.6 14.4512 282.391 15.0151 282.391 15.9307C282.391 16.8169 281.6 17.3735 280.472 17.3662C279.388 17.3735 278.604 16.8169 278.611 15.9307ZM285.613 25.7891H287.225V12.5762H285.613V25.7891ZM300.218 12.5762H298.577V20.2959H295.984V21.4385H298.577V22.5957H300.218V12.5762ZM289.056 18.5234L289.261 19.8271C290.301 19.8271 291.48 19.8198 292.718 19.7686V22.2295H294.344V19.6807C295.464 19.6001 296.592 19.4829 297.684 19.2998L297.596 18.1279C294.783 18.4868 291.495 18.5088 289.056 18.5234ZM290.066 15.4033C290.066 16.8242 291.414 17.7251 293.377 17.7324C295.303 17.7251 296.658 16.8242 296.673 15.4033C296.658 14.0044 295.303 13.0522 293.377 13.0596C291.414 13.0522 290.066 14.0044 290.066 15.4033ZM290.813 25.54H300.525V24.2217H292.439V21.6289H290.813V25.54ZM291.604 15.4033C291.604 14.6855 292.315 14.2534 293.377 14.2607C294.388 14.2534 295.113 14.6855 295.12 15.4033C295.113 16.1211 294.388 16.5386 293.377 16.5459C292.315 16.5386 291.604 16.1211 291.604 15.4033ZM313.108 12.5615H311.482V25.8037H313.108V12.5615ZM302.137 22.127L302.371 23.4746C304.751 23.4746 307.916 23.438 310.823 22.9473L310.706 21.7314C309.6 21.8779 308.428 21.9731 307.264 22.0244V20.8599C308.75 20.6182 309.725 19.7173 309.725 18.4648C309.725 16.9707 308.377 15.9819 306.429 15.9746C304.502 15.9819 303.177 16.9707 303.177 18.4648C303.177 19.7246 304.151 20.6328 305.638 20.8672V22.083C304.385 22.1196 303.191 22.1196 302.137 22.127ZM302.415 15.374H310.472V14.085H307.264V12.6055H305.638V14.085H302.415V15.374ZM304.729 18.4648C304.715 17.6958 305.425 17.2271 306.429 17.2197C307.461 17.2271 308.165 17.6958 308.157 18.4648C308.165 19.2266 307.461 19.6733 306.429 19.666C305.425 19.6733 304.715 19.2266 304.729 18.4648Z" fill="#717171"/>
<path d="M188.191 32.4453H185.496V39.2422H184.266V32.6797H181.609V44.1055C179.051 42.6211 178.299 39.7207 178.309 36.7422V36.4492H180.867V34.2227H172.703V36.4492H175.555V36.7422C175.564 40.0918 174.803 43.3047 172.039 44.8672L173.758 47.0352C175.408 46.0488 176.424 44.418 177 42.4355C177.635 44.1445 178.67 45.5312 180.262 46.3711L181.609 44.584V49.5742H184.266V41.5078H185.496V50.375H188.191V32.4453ZM207.33 32.4453H204.537V34.5938H201.392C201.461 34.1152 201.49 33.6172 201.49 33.0898H193.384V35.3164H198.365C198.052 37.2402 196.343 38.8027 192.349 39.5547L193.287 41.8203C197.242 41 199.732 39.3398 200.836 36.7031H204.537V38.0703H200.67V40.1992H204.537V41.4297H207.33V32.4453ZM195.318 44.2031H204.517V45.0234H195.357V50.1992H207.662V47.9727H198.15V47.0938H207.33V42.0156H195.318V44.2031ZM226.898 32.4648H224.085V42.5625H226.898V32.4648ZM211.702 40.082L213.07 42.2891C215.189 41.6543 216.605 40.3555 217.415 38.7246C218.216 40.2188 219.573 41.3809 221.605 41.957L222.952 39.8086C219.984 38.9297 218.851 36.8984 218.87 34.8281V33.1094H215.941V34.8281C215.941 36.9375 214.808 39.1836 211.702 40.082ZM214.788 50.1797H226.898V43.3242H214.788V50.1797ZM217.542 47.9336V45.5312H224.144V47.9336H217.542ZM237.305 33.6172C234.483 33.6074 232.286 35.4727 232.286 38.0703C232.286 40.6777 234.483 42.5332 237.305 42.5234C240.157 42.5332 242.305 40.6777 242.325 38.0703C242.305 35.4727 240.157 33.6074 237.305 33.6172ZM231.602 44.5742L231.915 46.8398C235.02 46.8398 239.22 46.8008 243.145 46.0391L242.93 44.0078C239.141 44.5352 234.757 44.584 231.602 44.5742ZM235.079 38.0703C235.079 36.7617 236.046 36.0391 237.305 36.0391C238.595 36.0391 239.571 36.7617 239.591 38.0703C239.571 39.4082 238.585 40.1113 237.305 40.1016C236.055 40.1113 235.079 39.4082 235.079 38.0703ZM243.888 50.4141H246.68V32.4453H243.888V50.4141ZM265.25 36.2539V33.7734H262.398V36.2539C262.379 39.7695 261.09 43.207 257.809 44.5547L259.488 46.8984C261.676 45.9316 263.072 44.0859 263.863 41.7812C264.664 43.8613 266.012 45.5312 268.023 46.4297L269.684 44.1641C266.5 42.8652 265.24 39.5645 265.25 36.2539ZM270.309 50.4141H273.141V32.4453H270.309V50.4141ZM287.357 34.7109V33.4609H284.349V34.7109C284.33 37.1719 282.357 40.0234 278.099 40.7656L279.291 43.0898C282.474 42.4746 284.691 40.7656 285.853 38.5977C287.005 40.7852 289.203 42.4844 292.416 43.0898L293.646 40.7656C289.291 40.043 287.347 37.2109 287.357 34.7109ZM277.767 48.2461H294.154V45.9414H277.767V48.2461ZM304.933 33.4805H298.116V42.543H299.366C302.003 42.543 303.732 42.4844 305.773 42.1328L305.499 39.9648C303.927 40.209 302.57 40.2871 300.812 40.3262V39.0469H304.308V36.918H300.812V35.7266H304.933V33.4805ZM300.538 50.1797H312.902V43.7734H300.538V50.1797ZM303.351 47.9336V45.9609H310.109V47.9336H303.351ZM305.05 38.9297H306.652V42.9922H309.308V32.7188H306.652V36.7031H305.05V38.9297ZM310.226 43.1094H312.902V32.4453H310.226V43.1094Z" fill="#0081C8"/>
<defs>
<clipPath id="clip0_24_3807">
<rect width="120" height="30.3896" fill="white" transform="translate(20 20.8052)"/>
</clipPath>
</defs>
</svg>
