<svg width="20" height="20" viewBox="0 0 20 20" fill="none" xmlns="http://www.w3.org/2000/svg">
<path fill-rule="evenodd" clip-rule="evenodd" d="M5 9.99989C5 9.80097 5.07902 9.61021 5.21967 9.46956C5.36032 9.3289 5.55109 9.24989 5.75 9.24989H12.388L10.23 7.28989C10.1557 7.22245 10.0956 7.14077 10.0534 7.0497C10.0112 6.95863 9.98771 6.86002 9.98432 6.7597C9.98093 6.65939 9.99771 6.55941 10.0337 6.4657C10.0696 6.37199 10.124 6.28644 10.1937 6.21414C10.2633 6.14184 10.3467 6.08425 10.439 6.04479C10.5313 6.00532 10.6306 5.98478 10.7309 5.98438C10.8313 5.98398 10.9307 6.00374 11.0233 6.04247C11.1159 6.08121 11.1998 6.13814 11.27 6.20989L14.77 9.45989C14.8426 9.52985 14.9003 9.61373 14.9398 9.70651C14.9792 9.79929 14.9995 9.89907 14.9995 9.99989C14.9995 10.1007 14.9792 10.2005 14.9398 10.2933C14.9003 10.386 14.8426 10.4699 14.77 10.5399L11.27 13.7899C11.1998 13.8616 11.1159 13.9186 11.0233 13.9573C10.9307 13.996 10.8313 14.0158 10.7309 14.0154C10.6306 14.015 10.5313 13.9945 10.439 13.955C10.3467 13.9155 10.2633 13.8579 10.1937 13.7856C10.124 13.7133 10.0696 13.6278 10.0337 13.5341C9.99771 13.4404 9.98093 13.3404 9.98432 13.2401C9.98771 13.1398 10.0112 13.0411 10.0534 12.9501C10.0956 12.859 10.1557 12.7773 10.23 12.7099L12.388 10.7499H5.75C5.55109 10.7499 5.36032 10.6709 5.21967 10.5302C5.07902 10.3896 5 10.1988 5 9.99989Z" fill="white"/>
</svg>
