<svg id="iconmonstr" xmlns="http://www.w3.org/2000/svg" width="70" height="70" viewBox="0 0 70 70">
  <defs>
    <style>
      .cls-1 {
        fill: #fff;
        fill-rule: evenodd;
      }
    </style>
  </defs>
  <path id="gear-2" class="cls-1" d="M35,27.5A7.5,7.5,0,1,0,42.5,35,7.5,7.5,0,0,0,35,27.5Zm0,3A4.5,4.5,0,1,1,30.5,35,4.5,4.5,0,0,1,35,30.5Zm10.688,8.925c-0.866,2.09-.1,3.688.732,5.367L44.793,46.42c-1.64-.814-3.242-1.614-5.36-0.735-2.094.872-2.685,2.539-3.283,4.315h-2.3c-0.6-1.777-1.186-3.445-3.275-4.312-2.129-.883-3.76-0.067-5.369.732l-1.625-1.626c0.836-1.676,1.6-3.27.731-5.369S21.778,36.748,20,36.15v-2.3c1.777-.6,3.446-1.186,4.313-3.275s0.1-3.689-.732-5.369l1.626-1.626c1.623,0.806,3.242,1.616,5.369.732,2.088-.866,2.677-2.535,3.274-4.312h2.3c0.6,1.777,1.187,3.446,3.276,4.313,2.128,0.882,3.759.068,5.368-.732l1.626,1.626c-0.834,1.682-1.6,3.28-.732,5.369S48.222,33.251,50,33.849v2.3C48.221,36.748,46.55,37.339,45.688,39.426ZM53,38.281V31.72c-3.222-1.148-4.089-1.2-4.54-2.294s0.125-1.754,1.588-4.834l-4.639-4.639C42.369,21.4,41.677,22,40.573,21.54S39.421,20.207,38.281,17H31.72c-1.145,3.215-1.2,4.088-2.294,4.541-1.128.47-1.8-.149-4.834-1.589l-4.639,4.639c1.465,3.083,2.043,3.739,1.588,4.835S20.22,30.573,17,31.72v6.562c3.208,1.14,4.088,1.2,4.54,2.292s-0.122,1.751-1.588,4.835l4.639,4.64c3-1.425,3.705-2.06,4.835-1.588,1.092,0.453,1.146,1.32,2.293,4.54h6.561c1.137-3.2,1.2-4.085,2.306-4.546s1.778,0.148,4.822,1.594l4.639-4.64C48.585,42.332,48,41.67,48.46,40.573S49.78,39.428,53,38.281Z"/>
</svg>
