<svg xmlns="http://www.w3.org/2000/svg" width="60" height="120" viewBox="0 0 60 120">
  <defs>
    <style>
      .cls-1 {
        fill: #0663b2;
      }

      .cls-1, .cls-2, .cls-3 {
        fill-rule: evenodd;
      }

      .cls-2 {
        fill: #222326;
      }

      .cls-3 {
        fill: #fff;
      }
    </style>
  </defs>
  <path id="download" class="cls-1" d="M15,14v1H5V14H4v2H16V14H15Zm-5,0L6,10H9V4h2v6h3Z"/>
  <path id="list" class="cls-1" d="M7,55V53H17v2H7Zm0-6H17v2H7V49Zm0-4H17v2H7V45ZM3,53H5v2H3V53Zm0-4H5v2H3V49Zm0-4H5v2H3V45Z"/>
  <path id="checkbox" class="cls-1" d="M16,66.5v7A2.5,2.5,0,0,1,13.5,76h-7A2.5,2.5,0,0,1,4,73.5v-7A2.5,2.5,0,0,1,6.5,64h7A2.5,2.5,0,0,1,16,66.5ZM6.5,65A1.5,1.5,0,0,0,5,66.5v7A1.5,1.5,0,0,0,6.5,75h7A1.5,1.5,0,0,0,15,73.5v-7A1.5,1.5,0,0,0,13.5,65h-7Zm2.521,7.5-2.25-2.159,0.7-.718,1.54,1.468L12.519,67.5l0.711,0.7Z"/>
  <path id="X" class="cls-1" d="M15.723,85.7l-4.3,4.3,4.266,4.266a1,1,0,0,1,0,1.414l-0.011.011a1,1,0,0,1-1.414,0L10,91.425,5.734,95.691a1,1,0,0,1-1.414,0L4.309,95.68a1,1,0,0,1,0-1.414L8.575,90l-4.3-4.3a1,1,0,0,1,0-1.414l0.011-.011a1,1,0,0,1,1.414,0l4.3,4.3,4.3-4.3a1,1,0,0,1,1.414,0l0.011,0.011A1,1,0,0,1,15.723,85.7Z"/>
  <path id="_" data-name="+" class="cls-1" d="M15,111H11v4a1,1,0,0,1-2,0v-4H5a1,1,0,0,1,0-2H9v-4a1,1,0,0,1,2,0v4h4A1,1,0,0,1,15,111Z"/>
  <path id="search" class="cls-1" d="M13.277,31.783a5.706,5.706,0,0,1-1.535,1.49L14.489,36l1.519-1.507ZM8.609,25.561a3.011,3.011,0,1,0,3.035,3.011A3.027,3.027,0,0,0,8.609,25.561Zm0,7.584a4.573,4.573,0,1,1,4.608-4.573A4.6,4.6,0,0,1,8.609,33.145Z"/>
  <path id="download-2" data-name="download" class="cls-2" d="M35,14v1H25V14H24v2H36V14H35Zm-5,0-4-4h3V4h2v6h3Z"/>
  <path id="list-2" data-name="list" class="cls-2" d="M27,55V53H37v2H27Zm0-6H37v2H27V49Zm0-4H37v2H27V45Zm-4,8h2v2H23V53Zm0-4h2v2H23V49Zm0-4h2v2H23V45Z"/>
  <path id="checkbox-2" data-name="checkbox" class="cls-2" d="M36,66.5v7A2.5,2.5,0,0,1,33.5,76h-7A2.5,2.5,0,0,1,24,73.5v-7A2.5,2.5,0,0,1,26.5,64h7A2.5,2.5,0,0,1,36,66.5ZM26.5,65A1.5,1.5,0,0,0,25,66.5v7A1.5,1.5,0,0,0,26.5,75h7A1.5,1.5,0,0,0,35,73.5v-7A1.5,1.5,0,0,0,33.5,65h-7Zm2.52,7.5-2.25-2.159,0.7-.718,1.54,1.468L32.519,67.5l0.711,0.7Z"/>
  <path id="X-2" data-name="X" class="cls-2" d="M35.723,85.7l-4.3,4.3,4.266,4.266a1,1,0,0,1,0,1.414l-0.011.011a1,1,0,0,1-1.414,0L30,91.425l-4.266,4.266a1,1,0,0,1-1.414,0l-0.011-.011a1,1,0,0,1,0-1.414L28.575,90l-4.3-4.3a1,1,0,0,1,0-1.414l0.011-.011a1,1,0,0,1,1.414,0l4.3,4.3,4.3-4.3a1,1,0,0,1,1.414,0l0.011,0.011A1,1,0,0,1,35.723,85.7Z"/>
  <path id="_2" data-name="+" class="cls-2" d="M35,111H31v4a1,1,0,0,1-2,0v-4H25a1,1,0,0,1,0-2h4v-4a1,1,0,0,1,2,0v4h4A1,1,0,0,1,35,111Z"/>
  <path id="search-2" data-name="search" class="cls-2" d="M33.277,31.783a5.706,5.706,0,0,1-1.535,1.49L34.489,36l1.519-1.507Zm-4.668-6.222a3.011,3.011,0,1,0,3.035,3.011A3.026,3.026,0,0,0,28.609,25.561Zm0,7.584a4.573,4.573,0,1,1,4.608-4.573A4.6,4.6,0,0,1,28.609,33.145Z"/>
  <path id="download-3" data-name="download" class="cls-3" d="M55,14v1H45V14H44v2H56V14H55Zm-5,0-4-4h3V4h2v6h3Z"/>
  <path id="list-3" data-name="list" class="cls-3" d="M47,55V53H57v2H47Zm0-6H57v2H47V49Zm0-4H57v2H47V45Zm-4,8h2v2H43V53Zm0-4h2v2H43V49Zm0-4h2v2H43V45Z"/>
  <path id="checkbox-3" data-name="checkbox" class="cls-3" d="M56,66.5v7A2.5,2.5,0,0,1,53.5,76h-7A2.5,2.5,0,0,1,44,73.5v-7A2.5,2.5,0,0,1,46.5,64h7A2.5,2.5,0,0,1,56,66.5ZM46.5,65A1.5,1.5,0,0,0,45,66.5v7A1.5,1.5,0,0,0,46.5,75h7A1.5,1.5,0,0,0,55,73.5v-7A1.5,1.5,0,0,0,53.5,65h-7Zm2.52,7.5-2.25-2.159,0.7-.718,1.54,1.468L52.519,67.5l0.711,0.7Z"/>
  <path id="X-3" data-name="X" class="cls-3" d="M55.723,85.7l-4.3,4.3,4.266,4.266a1,1,0,0,1,0,1.414l-0.011.011a1,1,0,0,1-1.414,0L50,91.425l-4.266,4.266a1,1,0,0,1-1.414,0l-0.011-.011a1,1,0,0,1,0-1.414L48.575,90l-4.3-4.3a1,1,0,0,1,0-1.414l0.011-.011a1,1,0,0,1,1.414,0l4.3,4.3,4.3-4.3a1,1,0,0,1,1.414,0l0.011,0.011A1,1,0,0,1,55.723,85.7Z"/>
  <path id="_3" data-name="+" class="cls-3" d="M55,111H51v4a1,1,0,0,1-2,0v-4H45a1,1,0,0,1,0-2h4v-4a1,1,0,0,1,2,0v4h4A1,1,0,0,1,55,111Z"/>
  <path id="search-3" data-name="search" class="cls-3" d="M53.277,31.783a5.706,5.706,0,0,1-1.535,1.49L54.489,36l1.519-1.507Zm-4.668-6.222a3.011,3.011,0,1,0,3.035,3.011A3.026,3.026,0,0,0,48.609,25.561Zm0,7.584a4.573,4.573,0,1,1,4.608-4.573A4.6,4.6,0,0,1,48.609,33.145Z"/>
</svg>
