<svg width="20" height="21" viewBox="0 0 20 21" fill="none" xmlns="http://www.w3.org/2000/svg">
<path fill-rule="evenodd" clip-rule="evenodd" d="M5.22953 7.70999C5.37279 7.57216 5.56491 7.49685 5.76367 7.5006C5.96243 7.50435 6.15157 7.58686 6.28953 7.72999L9.99953 11.668L13.7095 7.72999C13.777 7.65565 13.8586 7.5956 13.9497 7.5534C14.0408 7.51119 14.1394 7.4877 14.2397 7.48431C14.34 7.48093 14.44 7.49771 14.5337 7.53366C14.6274 7.56962 14.713 7.62402 14.7853 7.69365C14.8576 7.76327 14.9152 7.8467 14.9546 7.93899C14.9941 8.03127 15.0146 8.13055 15.015 8.23092C15.0154 8.33129 14.9957 8.43072 14.9569 8.52332C14.9182 8.61592 14.8613 8.6998 14.7895 8.76999L10.5395 13.27C10.4696 13.3426 10.3857 13.4003 10.2929 13.4398C10.2001 13.4792 10.1003 13.4995 9.99953 13.4995C9.89871 13.4995 9.79893 13.4792 9.70615 13.4398C9.61337 13.4003 9.52949 13.3426 9.45953 13.27L5.20953 8.76999C5.0717 8.62674 4.99638 8.43462 5.00013 8.23585C5.00388 8.03709 5.08639 7.84795 5.22953 7.70999Z" fill="#AAAAAA"/>
</svg>
