<svg xmlns="http://www.w3.org/2000/svg" viewBox="0 0 280.28 302.69"><defs><style>.cls-1{fill:none;stroke:#fff;stroke-linecap:round;stroke-linejoin:round;stroke-width:15px;}</style></defs><g id="Layer_2" data-name="Layer 2"><g id="Layer_1-2" data-name="Layer 1"><path class="cls-1" d="M173.89,142.09a88.66,88.66,0,0,0-36.38-19,61.09,61.09,0,1,0-54.32,0c-37.64,9.72-66.95,41.35-75.37,102A33.26,33.26,0,0,0,40.74,263h71.5"/><path class="cls-1" d="M260.23,226.16a53.32,53.32,0,0,0-1.29-11.53l13.84-12.42-12.2-21.14-17.71,5.8a53,53,0,0,0-20-11.58l-3.82-18.16H194.69l-3.82,18.16a53,53,0,0,0-19.94,11.58l-17.72-5.8L141,202.21l13.84,12.42a52.17,52.17,0,0,0,0,23.06L141,250.11l12.2,21.14,17.72-5.8A53,53,0,0,0,190.87,277l3.82,18.16H219.1L222.92,277a53,53,0,0,0,20-11.58l17.71,5.8,12.2-21.14-13.84-12.42A53.47,53.47,0,0,0,260.23,226.16Z"/><circle class="cls-1" cx="206.75" cy="226.16" r="21.36" transform="translate(-88.02 142.47) rotate(-31.72)"/></g></g></svg>