<svg xmlns="http://www.w3.org/2000/svg" viewBox="0 0 184.85 47.06"><defs><style>.cls-1{fill:#c2002f;}.cls-2{fill:#0081c8;}.cls-3{fill:#00943b;}.cls-4{fill:#231815;}</style></defs><g id="레이어_2" data-name="레이어 2"><path class="cls-1" d="M26.18,6.28c.09.14.21.26.22.4.13.41.51.66.56,1.08,0,.14.2.19.29.25s0,.28.23.48,0,.21,0,.35L27.8,9a3.71,3.71,0,0,1-.05,4.3,1.51,1.51,0,0,0-.37.6c-.08.08-.25.17-.33.24s.11.21.21.34c-.42.11-.47.46-.8.71l-.34,0a3.94,3.94,0,0,1-.74.49c-.08.08-.06.29-.05.36a2.53,2.53,0,0,1-1.62.5c-.08,0-.14.23-.23.24-.44,0-1,0-1.4.06-.18-.06-.28-.19-.47-.24a1.31,1.31,0,0,1-.52,0,5.16,5.16,0,0,0-.92-.34c-.18-.05-.52.12-.7,0A7.2,7.2,0,0,1,18,14.73c-.22-.33-.58-.43-.7-.77,0-.15,0-.36-.14-.42-.36-.1-.21-.33-.23-.54a1.6,1.6,0,0,0-.33-.53c-.11-.2,0-.5-.08-.77,0-.07.07-.15.06-.22-.13-.41.09-.85.05-1.2a2,2,0,0,1,.09-.71,6.32,6.32,0,0,1,.82-1.42,2.66,2.66,0,0,1,0-.28c.07-.08.16-.08.24-.16a3.53,3.53,0,0,1,.51-1,14.52,14.52,0,0,1,1.2-1.1,4.13,4.13,0,0,0,.79-.78c.08-.08.35,0,.43,0,.24-.24.6-.2.84-.37s.2.2.45.1a1,1,0,0,0,.42-.18c.25-.09.54.09.81.14a1.26,1.26,0,0,1,.81.2c.38.25,1.25.17,1.39.65C25.59,5.7,26,6,26.18,6.28Z"/><path class="cls-2" d="M40.9,11.8a1.49,1.49,0,0,0-.09-.58c0-.22.15-.46.07-.76,0-.08-.16-.17-.14-.24a3.53,3.53,0,0,0,.12-1.38,1,1,0,0,0-.14-.31c0-.07,0-.2.07-.34a3.15,3.15,0,0,0-.25-1.1c0-.15-.15-.25-.17-.46s-.16-.18-.15-.25A5,5,0,0,0,40,4.71c-.14-.66-.77-1.08-1-1.75,0-.07.21,0,.27,0a3.45,3.45,0,0,1,1.18,1.66c.08.23,0,.43.14.6A3.26,3.26,0,0,1,41.15,7c0,.07.12,0,.17.11a.45.45,0,0,0,0,.28c.31.36.12.73.18,1.1a1.37,1.37,0,0,0,.13.31c0,.07-.17.24-.18.31a1.55,1.55,0,0,1,.3,1.19c.29.13.16.52.23.82a.22.22,0,0,0,.17.11.88.88,0,0,0,.2-.38,5.71,5.71,0,0,0,0-1.55.57.57,0,0,1,.05-.62c-.12,0-.16-.18-.21-.26-.22-.89-.31-1.89-.57-2.8a.21.21,0,0,0,.08-.12,11.79,11.79,0,0,0-1-2.35c0-.15-.28-.32-.39-.47l0-.14c.31,0,.55.35.71.58a4.21,4.21,0,0,1,.8,1.48A12.66,12.66,0,0,1,42.36,6a2.61,2.61,0,0,0,.43.74,2.42,2.42,0,0,1,.06.65c.08.52.24,1,.34,1.53A1.84,1.84,0,0,1,43.24,10c-.17.6.22,1.24.38,1.77a.86.86,0,0,1-.12.68c0,.06.1.16.09.23-.12.25,0,.48-.08.75-.07.06.09.23,0,.35s-.13,0-.21.1,0,.42,0,.62c-.19.38-.09.89-.46,1.16-.14,0-.15.11-.23.16s.12.1.16.18-.13,0-.2.09.23.3.28.38c-.1.54-.5,1-.49,1.65,0,.14-.06.34-.08.47-.13.33-.36.56-.48.88,0,.13-.29.15-.31.28s-.15.46-.26.72-.27.08-.42.19a3.2,3.2,0,0,0-.26.71c-.18.31-.41.65-.59,1A4,4,0,0,1,39,23.57a.49.49,0,0,0-.27.08,1.66,1.66,0,0,1-.84.85c-.06,0-.16.29-.23.34a7.81,7.81,0,0,1-.8.66c-.13,0-.21.1-.35-.15a7.31,7.31,0,0,1-1.73,2c-.35.2-.7.18-.93.41a20.69,20.69,0,0,1-2.09,1.64c-.06,0-.29.33-.29.33-.25,0-.11.05-.33,0,0,0,0,.38-.32.45-.65.12-.82.88-.87,1.19s-.13.05-.21.11,0,.16-.1.22a4.41,4.41,0,0,0-.76.79c-.07.06-.12,0-.19,0a2.89,2.89,0,0,0-.55.87,6.74,6.74,0,0,1-1,1.71c-.1.12.23.55.2.7s-.28.25-.37.45c-.09.52-.11,1.09-.2,1.64a2.94,2.94,0,0,0,.11,1.39,9.4,9.4,0,0,1,0,1.3c0,.32.24.66.21,1,0,.47-.1.41,0,.8a1.88,1.88,0,0,0,0,.61c0,.31-.07.5-.09.81-.06.07-.2.22-.2.29a3.11,3.11,0,0,1-1.08,2c-.32.21-.61.53-1,.5a8.72,8.72,0,0,0-1,.44,3.57,3.57,0,0,1-1.52.08,2.18,2.18,0,0,1-1.45-.9c-.23-.27-.65-.17-.8-.58-.05-.16-.38-.24-.44-.33a4.34,4.34,0,0,1-.7-.94c-.15-.41,0-.69-.22-1.09-.2-.24-.28-.41-.47-.65s.06-.79-.13-1.11a.92.92,0,0,1-.32-.4,6.69,6.69,0,0,0-.28-1.11,9.87,9.87,0,0,1,0-2.24c0-.07-.21-.18-.19-.26a13.44,13.44,0,0,0,.18-1.69c.06-.31,0-.56.31-.82,0,0-.13-.11-.12-.19a7.71,7.71,0,0,0,.25-1.27c0-.08.18-.13.2-.21a4.11,4.11,0,0,1,0-1.35c0-.16.43-.39.53-.53a.91.91,0,0,1,.09-.55c0-.06.14,0,.22-.11s0-.17,0-.24c0-.24.43-.41.46-.56a3.93,3.93,0,0,1,.7-1.19,2.17,2.17,0,0,1,.3-.56c.08-.06.11,0,.13-.07s0-.22,0-.29c.16-.17.38-.34.41-.54a2.47,2.47,0,0,1,.36-.62,2.68,2.68,0,0,0,.76-.74c.16-.18.34-.14.49-.31s.29-.57.46-.81a7.27,7.27,0,0,1,1.26-1.13A11.53,11.53,0,0,1,25.24,23c.36-.27.57-.78.92-1s.47-.18.69-.34.4-.47.72-.54a3.2,3.2,0,0,0,.88-.26c.42-.25.24-.32.66-.58a8.86,8.86,0,0,1,1.12-.65.37.37,0,0,0,.17-.25,5.47,5.47,0,0,1,1.19-.9c.14,0,.29.13.45,0s-.09-.23,0-.36a6.47,6.47,0,0,1,.67-.7c.07-.05.24.06.38,0s.1-.18.17-.24-.07-.29,0-.42.2-.38.33-.41.5-.25.46-.39a.88.88,0,0,1,.44-.68c0-.07,0-.14,0-.2.16-.18.31-.29.47-.46s.09-.54.19-.73a2.26,2.26,0,0,0,.72-1.11c0-.22-.16-.53-.07-.72s.36-.2.38-.33a4.43,4.43,0,0,0-.09-.87c0-.2.25-.36.23-.58,0-.56,0-1.12-.07-1.7.19,0,.22-.16.24-.3A11.8,11.8,0,0,0,36.13,7c0-.28.22-.51.21-.79a1.16,1.16,0,0,0-.45-.66c-.21-.26-.08-.65-.15-1s-.33-.64-.38-1.07c0-.21-.29-.2-.37-.43a3.49,3.49,0,0,1-.15-.94c0-.15-.23-.13-.35-.22-.24-.4-.16-1.23-.7-1.42.05-.27-.19-.32-.28-.55a.83.83,0,0,1,.8.53c0,.08.23.12.29.13.17.18.15.59.33.7s.55.12.63.35.41.58.55.89a.49.49,0,0,0,.07.3c.22.19.25.41.41.58.37.43.74.87.56,1.46-.11.26.23.19.33.35.24.41.14,1,.46,1.3a4.74,4.74,0,0,0,.48,1.93,2.4,2.4,0,0,0,.13,2.07s.2,0,.21-.09c.06-.34.67-.45.57-.61A7.17,7.17,0,0,1,39,8.37a7.35,7.35,0,0,0,0-1.62l-.15-.24a2.07,2.07,0,0,1-.08-.93c0-.16-.15-.25-.19-.4s0-.2.05-.27.31.07.43.1,0,.28.06.36c.2.33.5.46.56.83,0,.06,0,.2,0,.27,0,.43.31.77.37,1.13s-.16.52-.07.76a3.33,3.33,0,0,1,.24,1.8c-.05.27.3.49.2.68s0,.22-.08.41-.14.1-.15.17c.18.39-.1,1-.16,1.32,0,.07.21.14.26-.11s.28-.14.41-.18A.8.8,0,0,0,40.9,11.8Zm1.32,1.35a3.89,3.89,0,0,0,.12-1c-.13-.38-.41,0-.6,0a1.89,1.89,0,0,1-.21,1.15c-.09.12-.15.46,0,.43S42.21,13.57,42.22,13.15ZM41.7,15a.37.37,0,0,0-.07-.42c-.17-.11-.4.05-.5.24s0,.49.24.47C41.43,15.31,41.61,15.12,41.7,15Z"/><path class="cls-2" d="M38.08,3.48a5,5,0,0,1,.71,1l0,.13c-.46.39-.85-.25-1-.63a2.92,2.92,0,0,0-.7-1.07c0-.07,0-.13,0-.2-.16-.18-.37-.43-.16-.53s.23.12.41.23C37.63,2.75,37.68,3.18,38.08,3.48Z"/><path class="cls-2" d="M39.94,1.75c0,.06-.11.18-.12.25a2.84,2.84,0,0,1-.61-.73c-.06,0-.19-.05-.23-.13s0-.09,0-.15c.2,0,.36.16.52.28s.14,0,.2,0A.63.63,0,0,1,39.94,1.75Z"/><path class="cls-3" d="M12.16,14.17a1.14,1.14,0,0,1,.19.19.31.31,0,0,0,.31,0c.11,0,.2.27.3.28s.24.33.39.46.2.16.3.22a4.17,4.17,0,0,0,.37.49c.1.12.25.07.36.08s.28.37.42.55c0,0,.14.18.14.24a2.74,2.74,0,0,0,.34.25c.05.06,0,.17.09.23a17.24,17.24,0,0,1,1.17,1.63.7.7,0,0,1,0,.17,12.11,12.11,0,0,1,.88,1.32,6.93,6.93,0,0,1,.26.7c.09.12.19.19.29.31a2.31,2.31,0,0,1,.3.82c0,.11-.08.44-.28.26s-.21-.59-.46-.78a.52.52,0,0,0-.11-.26c-.1-.12-.27-.11-.31-.28s-.18-.31-.28-.43c-.24-.35-.6-.48-.89-.83a.2.2,0,0,0-.16.05c-.05.11-.21.27-.07.45s.3.35.55.48.19.46.28.75a1,1,0,0,0,.35.29c.15.12.09.3.23.49s-.06.1-.06.16.29.14.44.32c.11-.1.26,0,.35.14-.17.16-.13.27-.19.44s.22.53.47.66.13.29.28.42.34.2.48.44-.06.16-.12.27.19.24.28.31a.53.53,0,0,1,.19.29c-.16.05-.46-.16-.62-.18s-.28-.26-.48-.3-.11.14-.18.13l-.3-.06c-.11,0-.37-.3-.48-.32s-.29.21-.41.19a1.94,1.94,0,0,1-.63-.17,3.71,3.71,0,0,1-.49-.24c-.1-.05-.07-.18-.16-.24s-.3-.06-.39-.12c-.37-.23-.72-.74-1-.91s-.39-.22-.62-.32-.19-.23-.33-.28c-.44-.15-.79-.42-1.29-.56a3.34,3.34,0,0,0-2.48.66.34.34,0,0,0-.17,0,3.64,3.64,0,0,1-.56.34,5.28,5.28,0,0,1-.83.39c-.08.05-.09.21-.17.25s-.35.09-.47.17-.12.2-.23.28a3.5,3.5,0,0,1-.73.46,11.3,11.3,0,0,1-1.82.33c-.36,0-.61.31-1.16.31a3.78,3.78,0,0,1-2.33-.53c-.14-.13-.17-.47-.27-.54-.29-.19-.27-.58-.35-.87-.1-.07-.3-.08-.29-.25a4.23,4.23,0,0,1,1-2.19c.12-.21.38-.3.4-.59a8.33,8.33,0,0,1,.74-.9c.06-.11,0-.29,0-.39A13.13,13.13,0,0,1,4,17.22c.17-.15.29-.37.55-.4s.21,0,.26-.1a1.27,1.27,0,0,1,.51-.52c.6-.41,1.1-1,1.78-1.13.1-.05.16-.16.27-.21s.31,0,.41,0c.51-.23,1-.72,1.49-.79.11-.05.17-.16.22-.15.46,0,1-.37,1.44.06A1.69,1.69,0,0,1,12.16,14.17Zm3.54,5V19c-.2-.12-.29-.47-.54-.54-.05,0-.16.05-.16.11a1.74,1.74,0,0,0,.27.86c.06-.22.22-.22.31,0A.48.48,0,0,0,15.7,19.12Z"/><path class="cls-4" d="M65,34.94,62.7,37.37,56.22,31a14.7,14.7,0,0,1-3,3.85,20,20,0,0,1-3.53,2.57l-2.26-2.58a14,14,0,0,0,3.27-2.24A13.33,13.33,0,0,0,52.87,30a11.37,11.37,0,0,0,1.26-2.88,11.09,11.09,0,0,0,.4-2.87V19.74H58.1v3.83A14.7,14.7,0,0,1,58,25.71c-.1.68-.22,1.34-.37,2Zm7.41,11H69.06V28.81H62V25.55h7.06V16.87h3.38Z"/><path class="cls-4" d="M103.08,33.22H91v1.59h6v7.51H85.39v1.44H97.75V47H81.88V39.22H93.43V37.94H81.72V34.81h5.84V33.22H75.71V30h27.37ZM96.69,22.94a5.36,5.36,0,0,1-.59,2.5,6.39,6.39,0,0,1-1.58,2,7.73,7.73,0,0,1-2.41,1.24,10.26,10.26,0,0,1-5.91,0,7.58,7.58,0,0,1-2.41-1.21,5.86,5.86,0,0,1-1.61-1.93A5.41,5.41,0,0,1,81.59,23a5.81,5.81,0,0,1,.57-2.6,6,6,0,0,1,1.6-2,7.15,7.15,0,0,1,2.36-1.28,10.21,10.21,0,0,1,5.93,0,7.61,7.61,0,0,1,2.41,1.28,6.07,6.07,0,0,1,1.63,2A5.64,5.64,0,0,1,96.69,22.94Zm-3.51,0A2.76,2.76,0,0,0,92,20.54a4.88,4.88,0,0,0-2.88-.86,4.76,4.76,0,0,0-2.89.85A2.74,2.74,0,0,0,85,22.9a2.65,2.65,0,0,0,1.16,2.3,4.81,4.81,0,0,0,2.89.83A5.29,5.29,0,0,0,92,25.27,2.62,2.62,0,0,0,93.18,22.9Z"/><path class="cls-4" d="M131.83,35.31H104.5V32.08h27.33ZM125.89,47h-3.42V40.35H110.24V37.1h15.65Zm-.06-16.59H110.37V17.84h15.26v3.23H113.76v1.37h11.49V25.7H113.76v1.5h12.07Z"/><path class="cls-4" d="M147.16,31.71h-13V18.43h3.38v3.83h6.19V18.43h3.42Zm-3.42-3.22v-3h-6.19v3Zm13,18.52H141.09V39h11.4V37.33H140.93V34.11H156v8H144.67v1.66h12.1ZM157,33.18h-3.35V30.09h-5.5v-3.2h5.5v-2.3h-5.5V21.37h5.5v-4.5H157Z"/><path class="cls-4" d="M177.86,35l-2.33,2.42-6.45-6.35a14.36,14.36,0,0,1-3,3.88,19.46,19.46,0,0,1-3.59,2.57L160.2,35a15.43,15.43,0,0,0,3.3-2.33A13.08,13.08,0,0,0,165.72,30,11.32,11.32,0,0,0,167,27.15a10.46,10.46,0,0,0,.4-2.84V19.74h3.58v3.93a14.39,14.39,0,0,1-.15,2.12,18.37,18.37,0,0,1-.36,1.93Zm7,10.88h-3.41v-29h3.41Z"/></g></svg>